<?xml version="1.0" ?><svg id="Layer_1" style="enable-background:new 0 0 24 24;" version="1.1" viewBox="0 0 24 24" xml:space="preserve" xmlns="http://www.w3.org/2000/svg" xmlns:xlink="http://www.w3.org/1999/xlink"><title/><g id="Fireplace"><g><path d="M18.5,19.5v-14c0-0.55-2.91-1-6.5-1s-6.5,0.45-6.5,1v14H18.5z" style="fill:#5C6671;"/><path d="M12,4.5c-3.59,0-6.5,0.45-6.5,1v14h13v-14C18.5,4.95,15.59,4.5,12,4.5z     M16,17H8V7.23C9.327,7.065,10.663,6.988,12,7c1.337-0.012,2.673,0.065,4,0.23V17z" style="opacity:0.1;enable-background:new    ;"/><path d="M1.5,1.5v4h4c0-0.55,2.91-1,6.5-1s6.5,0.45,6.5,1h4v-4H1.5z" style="fill:#9D581F;"/><g><rect height="4" style="opacity:0.2;fill:#FFFFFF;enable-background:new    ;" width="1.5" x="1.5" y="1.5"/><rect height="4" style="opacity:0.1;enable-background:new    ;" width="1.5" x="21" y="1.5"/></g><polygon points="18.5,5.5 18.5,19.5 5.5,19.5 5.5,5.5 2.5,5.5 2.5,22.5 21.5,22.5 21.5,5.5   " style="fill:#9D581F;"/><rect height="14" style="opacity:0.2;fill:#FFFFFF;enable-background:new    ;" width="1.5" x="18.5" y="5.5"/><rect height="17" style="opacity:0.2;fill:#FFFFFF;enable-background:new    ;" width="1.5" x="2.5" y="5.5"/><path d="M15.5,14.13c0,1.933-1.567,3.5-3.5,3.5s-3.5-1.567-3.5-3.5c0-0.06,0-0.13,0-0.19    C8.56,12,9.67,11.5,9.67,11.5s0,1.5,1.17,1.5c-0.003-0.698,0.112-1.391,0.34-2.05c0.401-1.002,1.099-1.857,2-2.45    c0,2.25,2.1,2.63,2.31,5.26C15.49,13.88,15.5,14,15.5,14.13z" id="_Path_" style="fill:#F99F38;"/><path d="M12,17.5c0.728,0.101,1.399-0.407,1.5-1.135c0.017-0.121,0.017-0.244,0-0.365c0-1-1-1-1-2.5    c-0.395,0.456-0.731,0.96-1,1.5c-0.384-0.036-0.74-0.215-1-0.5C10,15.5,10,17.5,12,17.5z" style="fill:#FFCF01;"/><g><path d="M10.37,12.28c-0.135-0.234-0.204-0.5-0.2-0.77c0.032-0.274-0.165-0.523-0.439-0.554     C9.638,10.945,9.544,10.96,9.46,11C8.447,11.597,7.876,12.731,8,13.9c0,0.07,0,0.15,0,0.22c0,2.209,1.791,4,4,4s4-1.791,4-4     c0-0.11,0-0.2,0-0.4c-0.106-1.144-0.584-2.222-1.36-3.07c-0.594-0.564-0.951-1.332-1-2.15c-0.002-0.276-0.228-0.498-0.504-0.496     c-0.098,0.001-0.194,0.031-0.276,0.086c-0.984,0.653-1.745,1.592-2.18,2.69C10.518,11.266,10.413,11.769,10.37,12.28z M11.37,13     c-0.003-0.64,0.102-1.275,0.31-1.88c0.245-0.638,0.635-1.21,1.14-1.67c0.204,0.669,0.545,1.289,1,1.82     c0.663,0.689,1.078,1.579,1.18,2.53v0.1c0,0.07,0,0.15,0,0.22c0,1.657-1.343,3-3,3s-3-1.343-3-3l0,0v-0.18     c-0.003-0.503,0.121-0.998,0.36-1.44c0.082,0.2,0.201,0.383,0.35,0.54c0.295,0.298,0.701,0.461,1.12,0.45     c0.272,0,0.495-0.218,0.5-0.49H11.37z" style="fill:#303C42;"/><path d="M22.5,1h-21C1.224,1,1,1.224,1,1.5v4C1,5.776,1.224,6,1.5,6H2v16.5C2,22.776,2.224,23,2.5,23h19     c0.276,0,0.5-0.224,0.5-0.5V6h0.5C22.776,6,23,5.776,23,5.5v-4C23,1.224,22.776,1,22.5,1z M21,15h-0.5     c-0.276,0-0.5,0.224-0.5,0.5s0.224,0.5,0.5,0.5H21v6h-8v-1c0-0.276-0.224-0.5-0.5-0.5S12,20.724,12,21v1H3v-2h0.5     C3.776,20,4,19.776,4,19.5S3.776,19,3.5,19H3v-7h0.5C3.776,12,4,11.776,4,11.5S3.776,11,3.5,11H3V6h2v9H4.5     C4.224,15,4,15.224,4,15.5S4.224,16,4.5,16H5v3.5C5,19.776,5.224,20,5.5,20H7v0.5C7,20.776,7.224,21,7.5,21S8,20.776,8,20.5V20     h10v0.5c0,0.276,0.224,0.5,0.5,0.5s0.5-0.224,0.5-0.5V20h0.5c0.276,0,0.5-0.224,0.5-0.5S19.776,19,19.5,19H19v-7h0.5     c0.276,0,0.5-0.224,0.5-0.5S19.776,11,19.5,11H19V6h2V15z M18,5.65V19H6V5.65C6.47,5.4,8.5,5,12,5S17.53,5.4,18,5.65z M22,5h-1     V4.5C21,4.224,20.776,4,20.5,4S20,4.224,20,4.5V5h-1.27C18,4.37,15.94,4.13,14,4V3.5C14,3.224,13.776,3,13.5,3S13,3.224,13,3.5V4     h-1C9.77,4,6.25,4.14,5.27,5H5V4.5C5,4.224,4.776,4,4.5,4S4,4.224,4,4.5V5H2V2h3v0.5C5,2.776,5.224,3,5.5,3S6,2.776,6,2.5V2h3     v0.5C9,2.776,9.224,3,9.5,3S10,2.776,10,2.5V2h8v0.5C18,2.776,18.224,3,18.5,3S19,2.776,19,2.5V2h3V5z" style="fill:#303C42;"/></g><linearGradient gradientTransform="matrix(1 0 0 -1 0 24)" gradientUnits="userSpaceOnUse" id="SVGID_1_" x1="-1.0106" x2="24.3676" y1="18.2975" y2="6.4683"><stop offset="0" style="stop-color:#FFFFFF;stop-opacity:0.2"/><stop offset="1" style="stop-color:#FFFFFF;stop-opacity:0"/></linearGradient><path d="M22.5,1h-21C1.224,1,1,1.224,1,1.5v4C1,5.776,1.224,6,1.5,6H2v16.5    C2,22.776,2.224,23,2.5,23h19c0.276,0,0.5-0.224,0.5-0.5V6h0.5C22.776,6,23,5.776,23,5.5v-4C23,1.224,22.776,1,22.5,1z" style="fill:url(#SVGID_1_);"/></g></g></svg>